####
#
#	OBJ File Generated by LightWave3D
#	LightWave3D OBJ Export v2.3
#
####
o isl_Pipe_01_DEF.obj
mtllib isl_Pipe_01_DEF.mtl
g default
v 2.6 1.05 -4.77612e-016
v 2.6 0.954508 -0.293893
v 2.6 0.704508 -0.475528
v 2.6 0.395492 -0.475528
v 2.6 0.145491 -0.293893
v 2.6 0.05 -4.77612e-016
v 2.6 0.145491 0.293893
v 2.6 0.395492 0.475528
v 2.6 0.704508 0.475528
v 2.6 0.954508 0.293893
v 2.6 1.085 -5.11045e-016
v 2.6 0.982824 -0.314465
v 2.6 0.715324 -0.508815
v 2.6 0.384676 -0.508815
v 2.6 0.117176 -0.314465
v 2.6 0.015 -5.11045e-016
v 2.6 0.117176 0.314465
v 2.6 0.384676 0.508815
v 2.6 0.715324 0.508815
v 2.6 0.982824 0.314465
v 2.7 1.085 -5.11045e-016
v 2.7 0.982824 -0.314465
v 2.7 0.715324 -0.508815
v 2.7 0.384676 -0.508815
v 2.7 0.117176 -0.314465
v 2.7 0.015 -5.11045e-016
v 2.7 0.117176 0.314465
v 2.7 0.384676 0.508815
v 2.7 0.715324 0.508815
v 2.7 0.982824 0.314465
v 2.7 1.1064 -5.31487e-016
v 2.7 1.00014 -0.327044
v 2.7 0.721937 -0.529168
v 2.7 0.378063 -0.529168
v 2.7 0.0998629 -0.327044
v 2.7 -0.00640001 -5.31487e-016
v 2.7 0.0998629 0.327044
v 2.7 0.378063 0.529168
v 2.7 0.721937 0.529168
v 2.7 1.00014 0.327044
v 2.85 1.1064 -5.31487e-016
v 2.85 1.00014 -0.327044
v 2.85 0.721937 -0.529168
v 2.85 0.378063 -0.529168
v 2.85 0.0998629 -0.327044
v 2.85 -0.00640001 -5.31487e-016
v 2.85 0.0998629 0.327044
v 2.85 0.378063 0.529168
v 2.85 0.721937 0.529168
v 2.85 1.00014 0.327044
v 2.85 1.0285 -4.57079e-016
v 2.85 0.937118 -0.281258
v 2.85 0.697866 -0.455084
v 2.85 0.402134 -0.455084
v 2.85 0.162882 -0.281258
v 2.85 0.071496 -4.57079e-016
v 2.85 0.162882 0.281258
v 2.85 0.402134 0.455084
v 2.85 0.697866 0.455084
v 2.85 0.937118 0.281258
v 2.75 1.0285 -4.57079e-016
v 2.75 0.937118 -0.281258
v 2.75 0.697866 -0.455084
v 2.75 0.402134 -0.455084
v 2.75 0.162882 -0.281258
v 2.75 0.071496 -4.57079e-016
v 2.75 0.162882 0.281258
v 2.75 0.402134 0.455084
v 2.75 0.697866 0.455084
v 2.75 0.937118 0.281258
v 2.75 0.961513 -3.93088e-016
v 2.75 0.882921 -0.241882
v 2.75 0.677165 -0.391373
v 2.75 0.422835 -0.391373
v 2.75 0.217079 -0.241882
v 2.75 0.138487 -3.93088e-016
v 2.75 0.217079 0.241882
v 2.75 0.422835 0.391373
v 2.75 0.677165 0.391373
v 2.75 0.882921 0.241882
v -2.6 1.05 -4.77612e-016
v -2.6 0.954508 -0.293893
v -2.6 0.704508 -0.475528
v -2.6 0.395492 -0.475528
v -2.6 0.145491 -0.293893
v -2.6 0.05 -4.77612e-016
v -2.6 0.145491 0.293893
v -2.6 0.395492 0.475528
v -2.6 0.704508 0.475528
v -2.6 0.954508 0.293893
v -2.6 1.085 -5.11045e-016
v -2.6 0.982824 -0.314465
v -2.6 0.715324 -0.508815
v -2.6 0.384676 -0.508815
v -2.6 0.117176 -0.314465
v -2.6 0.015 -5.11045e-016
v -2.6 0.117176 0.314465
v -2.6 0.384676 0.508815
v -2.6 0.715324 0.508815
v -2.6 0.982824 0.314465
v -2.7 1.085 -5.11045e-016
v -2.7 0.982824 -0.314465
v -2.7 0.715324 -0.508815
v -2.7 0.384676 -0.508815
v -2.7 0.117176 -0.314465
v -2.7 0.015 -5.11045e-016
v -2.7 0.117176 0.314465
v -2.7 0.384676 0.508815
v -2.7 0.715324 0.508815
v -2.7 0.982824 0.314465
v -2.7 1.1064 -5.31487e-016
v -2.7 1.00014 -0.327044
v -2.7 0.721937 -0.529168
v -2.7 0.378063 -0.529168
v -2.7 0.0998629 -0.327044
v -2.7 -0.00640001 -5.31487e-016
v -2.7 0.0998629 0.327044
v -2.7 0.378063 0.529168
v -2.7 0.721937 0.529168
v -2.7 1.00014 0.327044
v -2.85 1.1064 -5.31487e-016
v -2.85 1.00014 -0.327044
v -2.85 0.721937 -0.529168
v -2.85 0.378063 -0.529168
v -2.85 0.0998629 -0.327044
v -2.85 -0.00640001 -5.31487e-016
v -2.85 0.0998629 0.327044
v -2.85 0.378063 0.529168
v -2.85 0.721937 0.529168
v -2.85 1.00014 0.327044
v -2.85 1.0285 -4.57079e-016
v -2.85 0.937118 -0.281258
v -2.85 0.697866 -0.455084
v -2.85 0.402134 -0.455084
v -2.85 0.162882 -0.281258
v -2.85 0.071496 -4.57079e-016
v -2.85 0.162882 0.281258
v -2.85 0.402134 0.455084
v -2.85 0.697866 0.455084
v -2.85 0.937118 0.281258
v -2.75 1.0285 -4.57079e-016
v -2.75 0.937118 -0.281258
v -2.75 0.697866 -0.455084
v -2.75 0.402134 -0.455084
v -2.75 0.162882 -0.281258
v -2.75 0.071496 -4.57079e-016
v -2.75 0.162882 0.281258
v -2.75 0.402134 0.455084
v -2.75 0.697866 0.455084
v -2.75 0.937118 0.281258
v -2.75 0.961513 -3.93088e-016
v -2.75 0.882921 -0.241882
v -2.75 0.677165 -0.391373
v -2.75 0.422835 -0.391373
v -2.75 0.217079 -0.241882
v -2.75 0.138487 -3.93088e-016
v -2.75 0.217079 0.241882
v -2.75 0.422835 0.391373
v -2.75 0.677165 0.391373
v -2.75 0.882921 0.241882
vt 0.03 0.61
vt 0.03 0.73
vt 0.03 0.78
vn -1 0 0
vn -1 0 0
vn -1 0 0
vn -1 0 0
vn -1 0 0
vn -1 0 0
vn -1 0 0
vn -1 0 0
vn -1 0 -0
vn -1 0 -0
vn -1 0 -0
vn -1 0 -0
vn -1 0 -0
vn -1 0 -0
vn -1 0 -0
vn -1 0 -0
vn -1 0 -0
vn -1 0 -0
vn -1 0 -0
vn -1 0 -0
vn -1 0 -0
vn -1 0 -0
vn -1 0 -0
vn -1 0 -0
vn -1 0 -0
vn -1 0 -0
vn -1 0 -0
vn -1 0 -0
vn -1 0 -0
vn -1 0 -0
vn -1 0 -0
vn -1 0 -0
vn -1 0 -0
vn -1 0 -0
vn -1 0 -0
vn -1 0 -0
vn -1 0 -0
vn -1 0 -0
vn -1 0 -0
vn -1 0 -0
vn 0 0.951057 -0.309017
vn 0 0.951057 -0.309017
vn 0 0.951057 -0.309017
vn 0 0.951057 -0.309017
vn 0 0.587785 -0.809017
vn 0 0.587785 -0.809017
vn 0 0.587785 -0.809017
vn 0 0.587785 -0.809017
vn 0 -0 -1
vn 0 -0 -1
vn 0 -0 -1
vn 0 -0 -1
vn 0 -0.587785 -0.809017
vn 0 -0.587785 -0.809017
vn 0 -0.587785 -0.809017
vn 0 -0.587785 -0.809017
vn 0 -0.951056 -0.309017
vn 0 -0.951056 -0.309017
vn 0 -0.951056 -0.309017
vn 0 -0.951056 -0.309017
vn -0 -0.951056 0.309017
vn -0 -0.951056 0.309017
vn -0 -0.951056 0.309017
vn -0 -0.951056 0.309017
vn -0 -0.587785 0.809017
vn -0 -0.587785 0.809017
vn -0 -0.587785 0.809017
vn -0 -0.587785 0.809017
vn 0 0 1
vn 0 0 1
vn 0 0 1
vn 0 0 1
vn 0 0.587785 0.809017
vn 0 0.587785 0.809017
vn 0 0.587785 0.809017
vn 0 0.587785 0.809017
vn 0 0.951057 0.309017
vn 0 0.951057 0.309017
vn 0 0.951057 0.309017
vn 0 0.951057 0.309017
vn -1 0 0
vn -1 0 0
vn -1 0 0
vn -1 0 0
vn -1 0 0
vn -1 0 0
vn -1 0 0
vn -1 0 0
vn -1 0 -0
vn -1 0 -0
vn -1 0 -0
vn -1 0 -0
vn -1 0 -0
vn -1 0 -0
vn -1 0 -0
vn -1 0 -0
vn -1 0 -0
vn -1 0 -0
vn -1 0 -0
vn -1 0 -0
vn -1 0 -0
vn -1 0 -0
vn -1 0 -0
vn -1 0 -0
vn -1 0 -0
vn -1 0 -0
vn -1 0 -0
vn -1 0 -0
vn -1 0 -0
vn -1 0 -0
vn -1 0 -0
vn -1 0 -0
vn -1 0 -0
vn -1 0 -0
vn -1 0 -0
vn -1 0 -0
vn -1 0 -0
vn -1 0 -0
vn -1 0 -0
vn -1 0 -0
vn 0 0.951057 -0.309017
vn 0 0.951057 -0.309017
vn 0 0.951057 -0.309017
vn 0 0.951057 -0.309017
vn 0 0.587785 -0.809017
vn 0 0.587785 -0.809017
vn 0 0.587785 -0.809017
vn 0 0.587785 -0.809017
vn 0 -0 -1
vn 0 -0 -1
vn 0 -0 -1
vn 0 -0 -1
vn 0 -0.587785 -0.809017
vn 0 -0.587785 -0.809017
vn 0 -0.587785 -0.809017
vn 0 -0.587785 -0.809017
vn 0 -0.951057 -0.309017
vn 0 -0.951057 -0.309017
vn 0 -0.951057 -0.309017
vn 0 -0.951057 -0.309017
vn -0 -0.951057 0.309017
vn -0 -0.951057 0.309017
vn -0 -0.951057 0.309017
vn -0 -0.951057 0.309017
vn -0 -0.587785 0.809017
vn -0 -0.587785 0.809017
vn -0 -0.587785 0.809017
vn -0 -0.587785 0.809017
vn 0 0 1
vn 0 0 1
vn 0 0 1
vn 0 0 1
vn 0 0.587785 0.809017
vn 0 0.587785 0.809017
vn 0 0.587785 0.809017
vn 0 0.587785 0.809017
vn 0 0.951057 0.309017
vn 0 0.951057 0.309017
vn 0 0.951057 0.309017
vn 0 0.951057 0.309017
vn 1 -0 -0
vn 1 -0 -0
vn 1 -0 -0
vn 1 -0 -0
vn 1 -0 -0
vn 1 -0 -0
vn 1 -0 -0
vn 1 -0 -0
vn 1 0 0
vn 1 0 0
vn 1 0 0
vn 1 0 0
vn 1 0 0
vn 1 0 0
vn 1 0 0
vn 1 0 0
vn 1 0 0
vn 1 0 0
vn 1 0 0
vn 1 0 0
vn 1 0 -0
vn 1 0 -0
vn 1 0 -0
vn 1 0 -0
vn 1 0 -0
vn 1 0 -0
vn 1 0 -0
vn 1 0 -0
vn 1 -0 -0
vn 1 -0 -0
vn 1 -0 -0
vn 1 -0 -0
vn 1 -0 -0
vn 1 -0 -0
vn 1 -0 -0
vn 1 -0 -0
vn 1 -0 -0
vn 1 -0 -0
vn 1 -0 -0
vn 1 -0 -0
vn 0 -0.951057 0.309017
vn 0 -0.951057 0.309017
vn 0 -0.951057 0.309017
vn 0 -0.951057 0.309017
vn 0 -0.587785 0.809017
vn 0 -0.587785 0.809017
vn 0 -0.587785 0.809017
vn 0 -0.587785 0.809017
vn 0 0 1
vn 0 0 1
vn 0 0 1
vn 0 0 1
vn 0 0.587785 0.809017
vn 0 0.587785 0.809017
vn 0 0.587785 0.809017
vn 0 0.587785 0.809017
vn 0 0.951057 0.309017
vn 0 0.951057 0.309017
vn 0 0.951057 0.309017
vn 0 0.951057 0.309017
vn -0 0.951057 -0.309017
vn -0 0.951057 -0.309017
vn -0 0.951057 -0.309017
vn -0 0.951057 -0.309017
vn -0 0.587785 -0.809017
vn -0 0.587785 -0.809017
vn -0 0.587785 -0.809017
vn -0 0.587785 -0.809017
vn 0 0 -1
vn 0 0 -1
vn 0 0 -1
vn 0 0 -1
vn 0 -0.587785 -0.809017
vn 0 -0.587785 -0.809017
vn 0 -0.587785 -0.809017
vn 0 -0.587785 -0.809017
vn 0 -0.951057 -0.309017
vn 0 -0.951057 -0.309017
vn 0 -0.951057 -0.309017
vn 0 -0.951057 -0.309017
vn 1 -0 -0
vn 1 -0 -0
vn 1 -0 -0
vn 1 -0 -0
vn 1 -0 -0
vn 1 -0 -0
vn 1 -0 -0
vn 1 -0 -0
vn 1 0 0
vn 1 0 0
vn 1 0 0
vn 1 0 0
vn 1 0 0
vn 1 0 0
vn 1 0 0
vn 1 0 0
vn 1 0 0
vn 1 0 0
vn 1 0 0
vn 1 0 0
vn 1 0 -0
vn 1 0 -0
vn 1 0 -0
vn 1 0 -0
vn 1 0 -0
vn 1 0 -0
vn 1 0 -0
vn 1 0 -0
vn 1 -0 -0
vn 1 -0 -0
vn 1 -0 -0
vn 1 -0 -0
vn 1 -0 -0
vn 1 -0 -0
vn 1 -0 -0
vn 1 -0 -0
vn 1 -0 -0
vn 1 -0 -0
vn 1 -0 -0
vn 1 -0 -0
vn -0 0.587785 -0.809017
vn -0 0.587785 -0.809017
vn -0 0.587785 -0.809017
vn -0 0.587785 -0.809017
vn -0 0 -1
vn -0 0 -1
vn -0 0 -1
vn -0 0 -1
vn 0 -0.587785 -0.809017
vn 0 -0.587785 -0.809017
vn 0 -0.587785 -0.809017
vn 0 -0.587785 -0.809017
vn 0 -0.951057 -0.309017
vn 0 -0.951057 -0.309017
vn 0 -0.951057 -0.309017
vn 0 -0.951057 -0.309017
vn 0 -0.951057 0.309017
vn 0 -0.951057 0.309017
vn 0 -0.951057 0.309017
vn 0 -0.951057 0.309017
vn 0 -0.587785 0.809017
vn 0 -0.587785 0.809017
vn 0 -0.587785 0.809017
vn 0 -0.587785 0.809017
vn 0 0 1
vn 0 0 1
vn 0 0 1
vn 0 0 1
vn 0 0.587785 0.809017
vn 0 0.587785 0.809017
vn 0 0.587785 0.809017
vn 0 0.587785 0.809017
vn 0 0.951057 0.309017
vn 0 0.951057 0.309017
vn 0 0.951057 0.309017
vn 0 0.951057 0.309017
vn -0 0.951057 -0.309017
vn -0 0.951057 -0.309017
vn -0 0.951057 -0.309017
vn -0 0.951057 -0.309017
vn 1 -0 -0
vn 1 -0 -0
vn 1 -0 -0
vn 1 -0 -0
vn 1 -0 -0
vn 1 -0 -0
vn 1 -0 -0
vn 1 -0 -0
vn 1 0 0
vn 1 0 0
vn 1 0 0
vn 1 0 0
vn 1 0 0
vn 1 0 0
vn 1 0 0
vn 1 0 0
vn 1 0 0
vn 1 0 0
vn 1 0 0
vn 1 0 0
vn 1 0 0
vn 1 0 0
vn 1 0 0
vn 1 0 0
vn 1 0 0
vn 1 0 0
vn 1 0 0
vn 1 0 0
vn 1 0 -0
vn 1 0 -0
vn 1 0 -0
vn 1 0 -0
vn 1 0 -0
vn 1 0 -0
vn 1 0 -0
vn 1 0 -0
vn 1 0 -0
vn 1 0 -0
vn 1 0 -0
vn 1 0 -0
vn 0 0.951057 -0.309017
vn 0 0.951057 -0.309017
vn 0 0.951057 -0.309017
vn 0 0.951057 -0.309017
vn 0 0.587785 -0.809017
vn 0 0.587785 -0.809017
vn 0 0.587785 -0.809017
vn 0 0.587785 -0.809017
vn 0 -0 -1
vn 0 -0 -1
vn 0 -0 -1
vn 0 -0 -1
vn 0 -0.587785 -0.809017
vn 0 -0.587785 -0.809017
vn 0 -0.587785 -0.809017
vn 0 -0.587785 -0.809017
vn 0 -0.951056 -0.309017
vn 0 -0.951056 -0.309017
vn 0 -0.951056 -0.309017
vn 0 -0.951056 -0.309017
vn 0 -0.951056 0.309017
vn 0 -0.951056 0.309017
vn 0 -0.951056 0.309017
vn 0 -0.951056 0.309017
vn 0 -0.587785 0.809017
vn 0 -0.587785 0.809017
vn 0 -0.587785 0.809017
vn 0 -0.587785 0.809017
vn 0 0 1
vn 0 0 1
vn 0 0 1
vn 0 0 1
vn 0 0.587785 0.809017
vn 0 0.587785 0.809017
vn 0 0.587785 0.809017
vn 0 0.587785 0.809017
vn 0 0.951057 0.309017
vn 0 0.951057 0.309017
vn 0 0.951057 0.309017
vn 0 0.951057 0.309017
vn 1 -0 -0
vn 1 -0 -0
vn 1 -0 -0
vn 1 -0 -0
vn 1 -0 -0
vn 1 -0 -0
vn 1 -0 -0
vn 1 -0 -0
vn 1 0 0
vn 1 0 0
vn 1 0 0
vn 1 0 0
vn 1 0 0
vn 1 0 0
vn 1 0 0
vn 1 0 0
vn 1 0 0
vn 1 0 0
vn 1 0 0
vn 1 0 0
vn 1 0 0
vn 1 0 0
vn 1 0 0
vn 1 0 0
vn 1 0 0
vn 1 0 0
vn 1 0 0
vn 1 0 0
vn 1 0 -0
vn 1 0 -0
vn 1 0 -0
vn 1 0 -0
vn 1 0 -0
vn 1 0 -0
vn 1 0 -0
vn 1 0 -0
vn 1 0 -0
vn 1 0 -0
vn 1 0 -0
vn 1 0 -0
vn 0 0.951057 -0.309017
vn 0 0.951057 -0.309017
vn 0 0.951057 -0.309017
vn 0 0.951057 -0.309017
vn 0 0.587785 -0.809017
vn 0 0.587785 -0.809017
vn 0 0.587785 -0.809017
vn 0 0.587785 -0.809017
vn 0 -0 -1
vn 0 -0 -1
vn 0 -0 -1
vn 0 -0 -1
vn 0 -0.587785 -0.809017
vn 0 -0.587785 -0.809017
vn 0 -0.587785 -0.809017
vn 0 -0.587785 -0.809017
vn 0 -0.951057 -0.309017
vn 0 -0.951057 -0.309017
vn 0 -0.951057 -0.309017
vn 0 -0.951057 -0.309017
vn 0 -0.951057 0.309017
vn 0 -0.951057 0.309017
vn 0 -0.951057 0.309017
vn 0 -0.951057 0.309017
vn 0 -0.587785 0.809017
vn 0 -0.587785 0.809017
vn 0 -0.587785 0.809017
vn 0 -0.587785 0.809017
vn 0 0 1
vn 0 0 1
vn 0 0 1
vn 0 0 1
vn 0 0.587785 0.809017
vn 0 0.587785 0.809017
vn 0 0.587785 0.809017
vn 0 0.587785 0.809017
vn 0 0.951057 0.309017
vn 0 0.951057 0.309017
vn 0 0.951057 0.309017
vn 0 0.951057 0.309017
vn -1 0 0
vn -1 0 0
vn -1 0 0
vn -1 0 0
vn -1 0 0
vn -1 0 0
vn -1 0 0
vn -1 0 0
vn -1 0 -0
vn -1 0 -0
vn -1 0 -0
vn -1 0 -0
vn -1 0 -0
vn -1 0 -0
vn -1 0 -0
vn -1 0 -0
vn -1 0 -0
vn -1 0 -0
vn -1 0 -0
vn -1 0 -0
vn -1 -0 -0
vn -1 -0 -0
vn -1 -0 -0
vn -1 -0 -0
vn -1 -0 -0
vn -1 -0 -0
vn -1 -0 -0
vn -1 -0 -0
vn -1 -0 0
vn -1 -0 0
vn -1 -0 0
vn -1 -0 0
vn -1 0 0
vn -1 0 0
vn -1 0 0
vn -1 0 0
vn -1 0 0
vn -1 0 0
vn -1 0 0
vn -1 0 0
vn 0 -0.951057 0.309017
vn 0 -0.951057 0.309017
vn 0 -0.951057 0.309017
vn 0 -0.951057 0.309017
vn 0 -0.587785 0.809017
vn 0 -0.587785 0.809017
vn 0 -0.587785 0.809017
vn 0 -0.587785 0.809017
vn 0 0 1
vn 0 0 1
vn 0 0 1
vn 0 0 1
vn 0 0.587785 0.809017
vn 0 0.587785 0.809017
vn 0 0.587785 0.809017
vn 0 0.587785 0.809017
vn 0 0.951057 0.309017
vn 0 0.951057 0.309017
vn 0 0.951057 0.309017
vn 0 0.951057 0.309017
vn 0 0.951057 -0.309017
vn 0 0.951057 -0.309017
vn 0 0.951057 -0.309017
vn 0 0.951057 -0.309017
vn 0 0.587785 -0.809017
vn 0 0.587785 -0.809017
vn 0 0.587785 -0.809017
vn 0 0.587785 -0.809017
vn 0 0 -1
vn 0 0 -1
vn 0 0 -1
vn 0 0 -1
vn 0 -0.587785 -0.809017
vn 0 -0.587785 -0.809017
vn 0 -0.587785 -0.809017
vn 0 -0.587785 -0.809017
vn 0 -0.951057 -0.309017
vn 0 -0.951057 -0.309017
vn 0 -0.951057 -0.309017
vn 0 -0.951057 -0.309017
vn -1 0 0
vn -1 0 0
vn -1 0 0
vn -1 0 0
vn -1 0 0
vn -1 0 0
vn -1 0 0
vn -1 0 0
vn -1 0 -0
vn -1 0 -0
vn -1 0 -0
vn -1 0 -0
vn -1 0 -0
vn -1 0 -0
vn -1 0 -0
vn -1 0 -0
vn -1 0 -0
vn -1 0 -0
vn -1 0 -0
vn -1 0 -0
vn -1 -0 -0
vn -1 -0 -0
vn -1 -0 -0
vn -1 -0 -0
vn -1 -0 -0
vn -1 -0 -0
vn -1 -0 -0
vn -1 -0 -0
vn -1 -0 0
vn -1 -0 0
vn -1 -0 0
vn -1 -0 0
vn -1 0 0
vn -1 0 0
vn -1 0 0
vn -1 0 0
vn -1 0 0
vn -1 0 0
vn -1 0 0
vn -1 0 0
vn 0 -0 -1
vn 0 -0 -1
vn 0 -0 -1
vn 0 -0 -1
vn 0 0.587785 -0.809017
vn 0 0.587785 -0.809017
vn 0 0.587785 -0.809017
vn 0 0.587785 -0.809017
vn 0 0.951056 -0.309017
vn 0 0.951056 -0.309017
vn 0 0.951056 -0.309017
vn 0 0.951056 -0.309017
vn 0 0.951056 0.309017
vn 0 0.951056 0.309017
vn 0 0.951056 0.309017
vn 0 0.951056 0.309017
vn 0 0.587785 0.809017
vn 0 0.587785 0.809017
vn 0 0.587785 0.809017
vn 0 0.587785 0.809017
vn -0 -0 1
vn -0 -0 1
vn -0 -0 1
vn -0 -0 1
vn -0 -0.587785 0.809017
vn -0 -0.587785 0.809017
vn -0 -0.587785 0.809017
vn -0 -0.587785 0.809017
vn -0 -0.951057 0.309017
vn -0 -0.951057 0.309017
vn -0 -0.951057 0.309017
vn -0 -0.951057 0.309017
vn 0 -0.951057 -0.309017
vn 0 -0.951057 -0.309017
vn 0 -0.951057 -0.309017
vn 0 -0.951057 -0.309017
vn 0 -0.587785 -0.809017
vn 0 -0.587785 -0.809017
vn 0 -0.587785 -0.809017
vn 0 -0.587785 -0.809017
g isl_Pipe_01
usemtl isl_Pipe_01
s off
f 2/2/1 1/2/2 11/2/3 12/2/4
f 3/2/5 2/2/6 12/2/7 13/2/8
f 4/2/9 3/2/10 13/2/11 14/2/12
f 5/2/13 4/2/14 14/2/15 15/2/16
f 6/2/17 5/2/18 15/2/19 16/2/20
f 17/2/21 7/2/22 6/2/23 16/2/24
f 18/2/25 8/2/26 7/2/27 17/2/28
f 19/2/29 9/2/30 8/2/31 18/2/32
f 20/2/33 10/2/34 9/2/35 19/2/36
f 11/2/37 1/2/38 10/2/39 20/2/40
f 12/2/41 11/2/42 21/2/43 22/2/44
f 13/2/45 12/2/46 22/2/47 23/2/48
f 14/2/49 13/2/50 23/2/51 24/2/52
f 15/2/53 14/2/54 24/2/55 25/2/56
f 16/2/57 15/2/58 25/2/59 26/2/60
f 27/2/61 17/2/62 16/2/63 26/2/64
f 28/2/65 18/2/66 17/2/67 27/2/68
f 29/2/69 19/2/70 18/2/71 28/2/72
f 30/2/73 20/2/74 19/2/75 29/2/76
f 21/2/77 11/2/78 20/2/79 30/2/80
f 22/2/81 21/2/82 31/3/83 32/3/84
f 23/2/85 22/2/86 32/3/87 33/3/88
f 24/2/89 23/2/90 33/3/91 34/3/92
f 25/2/93 24/2/94 34/3/95 35/3/96
f 26/2/97 25/2/98 35/3/99 36/3/100
f 37/3/101 27/2/102 26/2/103 36/3/104
f 38/3/105 28/2/106 27/2/107 37/3/108
f 39/3/109 29/2/110 28/2/111 38/3/112
f 40/3/113 30/2/114 29/2/115 39/3/116
f 31/3/117 21/2/118 30/2/119 40/3/120
f 32/3/121 31/3/122 41/3/123 42/3/124
f 33/3/125 32/3/126 42/3/127 43/3/128
f 34/3/129 33/3/130 43/3/131 44/3/132
f 35/3/133 34/3/134 44/3/135 45/3/136
f 36/3/137 35/3/138 45/3/139 46/3/140
f 47/3/141 37/3/142 36/3/143 46/3/144
f 48/3/145 38/3/146 37/3/147 47/3/148
f 49/3/149 39/3/150 38/3/151 48/3/152
f 50/3/153 40/3/154 39/3/155 49/3/156
f 41/3/157 31/3/158 40/3/159 50/3/160
f 42/3/161 41/3/162 51/2/163 52/2/164
f 43/3/165 42/3/166 52/2/167 53/2/168
f 44/3/169 43/3/170 53/2/171 54/2/172
f 45/3/173 44/3/174 54/2/175 55/2/176
f 46/3/177 45/3/178 55/2/179 56/2/180
f 57/2/181 47/3/182 46/3/183 56/2/184
f 58/2/185 48/3/186 47/3/187 57/2/188
f 59/2/189 49/3/190 48/3/191 58/2/192
f 60/2/193 50/3/194 49/3/195 59/2/196
f 51/2/197 41/3/198 50/3/199 60/2/200
f 52/2/201 51/2/202 61/2/203 62/2/204
f 53/2/205 52/2/206 62/2/207 63/2/208
f 54/2/209 53/2/210 63/2/211 64/2/212
f 55/2/213 54/2/214 64/2/215 65/2/216
f 56/2/217 55/2/218 65/2/219 66/2/220
f 67/2/221 57/2/222 56/2/223 66/2/224
f 68/2/225 58/2/226 57/2/227 67/2/228
f 69/2/229 59/2/230 58/2/231 68/2/232
f 70/2/233 60/2/234 59/2/235 69/2/236
f 61/2/237 51/2/238 60/2/239 70/2/240
f 62/2/241 61/2/242 71/1/243 72/1/244
f 63/2/245 62/2/246 72/1/247 73/1/248
f 64/2/249 63/2/250 73/1/251 74/1/252
f 65/2/253 64/2/254 74/1/255 75/1/256
f 66/2/257 65/2/258 75/1/259 76/1/260
f 77/1/261 67/2/262 66/2/263 76/1/264
f 78/1/265 68/2/266 67/2/267 77/1/268
f 79/1/269 69/2/270 68/2/271 78/1/272
f 80/1/273 70/2/274 69/2/275 79/1/276
f 71/1/277 61/2/278 70/2/279 80/1/280
f 2/2/281 3/2/282 83/2/283 82/2/284
f 3/2/285 4/2/286 84/2/287 83/2/288
f 4/2/289 5/2/290 85/2/291 84/2/292
f 86/2/293 85/2/294 5/2/295 6/2/296
f 86/2/297 6/2/298 7/2/299 87/2/300
f 7/2/301 8/2/302 88/2/303 87/2/304
f 8/2/305 9/2/306 89/2/307 88/2/308
f 9/2/309 10/2/310 90/2/311 89/2/312
f 10/2/313 1/2/314 81/2/315 90/2/316
f 1/2/317 2/2/318 82/2/319 81/2/320
f 92/2/321 91/2/322 81/2/323 82/2/324
f 93/2/325 92/2/326 82/2/327 83/2/328
f 94/2/329 93/2/330 83/2/331 84/2/332
f 95/2/333 94/2/334 84/2/335 85/2/336
f 96/2/337 95/2/338 85/2/339 86/2/340
f 96/2/341 86/2/342 87/2/343 97/2/344
f 97/2/345 87/2/346 88/2/347 98/2/348
f 98/2/349 88/2/350 89/2/351 99/2/352
f 99/2/353 89/2/354 90/2/355 100/2/356
f 100/2/357 90/2/358 81/2/359 91/2/360
f 102/2/361 101/2/362 91/2/363 92/2/364
f 103/2/365 102/2/366 92/2/367 93/2/368
f 104/2/369 103/2/370 93/2/371 94/2/372
f 105/2/373 104/2/374 94/2/375 95/2/376
f 106/2/377 105/2/378 95/2/379 96/2/380
f 106/2/381 96/2/382 97/2/383 107/2/384
f 107/2/385 97/2/386 98/2/387 108/2/388
f 108/2/389 98/2/390 99/2/391 109/2/392
f 109/2/393 99/2/394 100/2/395 110/2/396
f 110/2/397 100/2/398 91/2/399 101/2/400
f 112/3/401 111/3/402 101/2/403 102/2/404
f 113/3/405 112/3/406 102/2/407 103/2/408
f 114/3/409 113/3/410 103/2/411 104/2/412
f 115/3/413 114/3/414 104/2/415 105/2/416
f 116/3/417 115/3/418 105/2/419 106/2/420
f 116/3/421 106/2/422 107/2/423 117/3/424
f 117/3/425 107/2/426 108/2/427 118/3/428
f 118/3/429 108/2/430 109/2/431 119/3/432
f 119/3/433 109/2/434 110/2/435 120/3/436
f 120/3/437 110/2/438 101/2/439 111/3/440
f 122/3/441 121/3/442 111/3/443 112/3/444
f 123/3/445 122/3/446 112/3/447 113/3/448
f 124/3/449 123/3/450 113/3/451 114/3/452
f 125/3/453 124/3/454 114/3/455 115/3/456
f 126/3/457 125/3/458 115/3/459 116/3/460
f 126/3/461 116/3/462 117/3/463 127/3/464
f 127/3/465 117/3/466 118/3/467 128/3/468
f 128/3/469 118/3/470 119/3/471 129/3/472
f 129/3/473 119/3/474 120/3/475 130/3/476
f 130/3/477 120/3/478 111/3/479 121/3/480
f 132/2/481 131/2/482 121/3/483 122/3/484
f 133/2/485 132/2/486 122/3/487 123/3/488
f 134/2/489 133/2/490 123/3/491 124/3/492
f 135/2/493 134/2/494 124/3/495 125/3/496
f 136/2/497 135/2/498 125/3/499 126/3/500
f 136/2/501 126/3/502 127/3/503 137/2/504
f 137/2/505 127/3/506 128/3/507 138/2/508
f 138/2/509 128/3/510 129/3/511 139/2/512
f 139/2/513 129/3/514 130/3/515 140/2/516
f 140/2/517 130/3/518 121/3/519 131/2/520
f 142/2/521 141/2/522 131/2/523 132/2/524
f 143/2/525 142/2/526 132/2/527 133/2/528
f 144/2/529 143/2/530 133/2/531 134/2/532
f 145/2/533 144/2/534 134/2/535 135/2/536
f 146/2/537 145/2/538 135/2/539 136/2/540
f 146/2/541 136/2/542 137/2/543 147/2/544
f 147/2/545 137/2/546 138/2/547 148/2/548
f 148/2/549 138/2/550 139/2/551 149/2/552
f 149/2/553 139/2/554 140/2/555 150/2/556
f 150/2/557 140/2/558 131/2/559 141/2/560
f 152/1/561 151/1/562 141/2/563 142/2/564
f 153/1/565 152/1/566 142/2/567 143/2/568
f 154/1/569 153/1/570 143/2/571 144/2/572
f 155/1/573 154/1/574 144/2/575 145/2/576
f 156/1/577 155/1/578 145/2/579 146/2/580
f 156/1/581 146/2/582 147/2/583 157/1/584
f 157/1/585 147/2/586 148/2/587 158/1/588
f 158/1/589 148/2/590 149/2/591 159/1/592
f 159/1/593 149/2/594 150/2/595 160/1/596
f 160/1/597 150/2/598 141/2/599 151/1/600
f 158/1/601 159/1/602 79/1/603 78/1/604
f 157/1/605 158/1/606 78/1/607 77/1/608
f 156/1/609 157/1/610 77/1/611 76/1/612
f 155/1/613 156/1/614 76/1/615 75/1/616
f 154/1/617 155/1/618 75/1/619 74/1/620
f 153/1/621 154/1/622 74/1/623 73/1/624
f 152/1/625 153/1/626 73/1/627 72/1/628
f 151/1/629 152/1/630 72/1/631 71/1/632
f 160/1/633 151/1/634 71/1/635 80/1/636
f 159/1/637 160/1/638 80/1/639 79/1/640
